{
  "accessors": [
    {
      "bufferView": 2,
      "componentType": 5126,
      "count": 65532,
      "max": [
        372.4293212890625,
        18.57025146484375,
        335.31622314453125
      ],
      "min": [
        -422.35870361328125,
        -94.88150787353516,
        -327.8319396972656
      ],
      "type": "VEC3"
    },
    {
      "bufferView": 2,
      "byteOffset": 786384,
      "componentType": 5126,
      "count": 65532,
      "max": [
        0.9999518990516663,
        0.9998930096626282,
        0.9999852776527405
      ],
      "min": [
        -0.9999866485595703,
        -0.9999998807907104,
        -0.9999969005584717
      ],
      "type": "VEC3"
    },
    {
      "bufferView": 1,
      "componentType": 5126,
      "count": 65532,
      "max": [
        0.9998779892921448,
        0.4998779892921448
      ],
      "min": [
        0.00012199999764561653,
        0.00012199999764561653
      ],
      "type": "VEC2"
    },
    {
      "bufferView": 0,
      "componentType": 5125,
      "count": 194067,
      "type": "SCALAR"
    },
    {
      "bufferView": 2,
      "byteOffset": 1572768,
      "componentType": 5126,
      "count": 65532,
      "max": [
        371.3927917480469,
        18.57025146484375,
        350.8356018066406
      ],
      "min": [
        -429.0723876953125,
        -80.426025390625,
        -325.600830078125
      ],
      "type": "VEC3"
    },
    {
      "bufferView": 2,
      "byteOffset": 2359152,
      "componentType": 5126,
      "count": 65532,
      "max": [
        0.9999488592147827,
        0.9997349381446838,
        0.9999696612358093
      ],
      "min": [
        -0.9999637007713318,
        -0.9999996423721313,
        -0.9999311566352844
      ],
      "type": "VEC3"
    },
    {
      "bufferView": 1,
      "byteOffset": 524256,
      "componentType": 5126,
      "count": 65532,
      "max": [
        0.4998779892921448,
        0.4998779892921448
      ],
      "min": [
        0.00012199999764561653,
        0.00012199999764561653
      ],
      "type": "VEC2"
    },
    {
      "bufferView": 0,
      "byteOffset": 776268,
      "componentType": 5125,
      "count": 211944,
      "type": "SCALAR"
    },
    {
      "bufferView": 2,
      "byteOffset": 3145536,
      "componentType": 5126,
      "count": 65532,
      "max": [
        372.04510498046875,
        4.0340118408203125,
        325.4539794921875
      ],
      "min": [
        -424.9388122558594,
        -92.9302978515625,
        -279.1666259765625
      ],
      "type": "VEC3"
    },
    {
      "bufferView": 2,
      "byteOffset": 3931920,
      "componentType": 5126,
      "count": 65532,
      "max": [
        0.9999397993087769,
        0.999980092048645,
        0.999997079372406
      ],
      "min": [
        -0.9999016523361206,
        -0.9999994039535522,
        -0.9999083876609802
      ],
      "type": "VEC3"
    },
    {
      "bufferView": 1,
      "byteOffset": 1048512,
      "componentType": 5126,
      "count": 65532,
      "max": [
        0.9998760223388672,
        0.9925540089607239
      ],
      "min": [
        0.00012199999764561653,
        0.00012199999764561653
      ],
      "type": "VEC2"
    },
    {
      "bufferView": 0,
      "byteOffset": 1624044,
      "componentType": 5125,
      "count": 186618,
      "type": "SCALAR"
    },
    {
      "bufferView": 2,
      "byteOffset": 4718304,
      "componentType": 5126,
      "count": 65532,
      "max": [
        371.3558349609375,
        5.940093994140625,
        338.2276916503906
      ],
      "min": [
        -423.6376037597656,
        -92.2165756225586,
        -331.34039306640625
      ],
      "type": "VEC3"
    },
    {
      "bufferView": 2,
      "byteOffset": 5504688,
      "componentType": 5126,
      "count": 65532,
      "max": [
        0.9998788833618164,
        0.999640166759491,
        0.999813973903656
      ],
      "min": [
        -0.9999783635139465,
        -1.0,
        -0.9998777508735657
      ],
      "type": "VEC3"
    },
    {
      "bufferView": 1,
      "byteOffset": 1572768,
      "componentType": 5126,
      "count": 65532,
      "max": [
        0.9998779892921448,
        0.9998779892921448
      ],
      "min": [
        0.00012199999764561653,
        0.5001220107078552
      ],
      "type": "VEC2"
    },
    {
      "bufferView": 0,
      "byteOffset": 2370516,
      "componentType": 5125,
      "count": 221055,
      "type": "SCALAR"
    },
    {
      "bufferView": 2,
      "byteOffset": 6291072,
      "componentType": 5126,
      "count": 65532,
      "max": [
        370.8716735839844,
        18.57025146484375,
        351.3189392089844
      ],
      "min": [
        -280.6459045410156,
        -94.88150787353516,
        -185.02276611328125
      ],
      "type": "VEC3"
    },
    {
      "bufferView": 2,
      "byteOffset": 7077456,
      "componentType": 5126,
      "count": 65532,
      "max": [
        0.999946117401123,
        0.9998126029968262,
        0.9998660087585449
      ],
      "min": [
        -0.999967634677887,
        -1.0,
        -0.9999935626983643
      ],
      "type": "VEC3"
    },
    {
      "bufferView": 1,
      "byteOffset": 2097024,
      "componentType": 5126,
      "count": 65532,
      "max": [
        0.4998779892921448,
        0.9998779892921448
      ],
      "min": [
        0.00012199999764561653,
        0.5001220107078552
      ],
      "type": "VEC2"
    },
    {
      "bufferView": 0,
      "byteOffset": 3254736,
      "componentType": 5125,
      "count": 196077,
      "type": "SCALAR"
    },
    {
      "bufferView": 2,
      "byteOffset": 7863840,
      "componentType": 5126,
      "count": 65532,
      "max": [
        371.6387023925781,
        18.57025146484375,
        329.20513916015625
      ],
      "min": [
        -422.0439453125,
        -94.88150787353516,
        -330.4666748046875
      ],
      "type": "VEC3"
    },
    {
      "bufferView": 2,
      "byteOffset": 8650224,
      "componentType": 5126,
      "count": 65532,
      "max": [
        0.9999577403068542,
        0.9999055862426758,
        0.9998694062232971
      ],
      "min": [
        -0.9999982714653015,
        -0.9999998211860657,
        -0.9999886155128479
      ],
      "type": "VEC3"
    },
    {
      "bufferView": 1,
      "byteOffset": 2621280,
      "componentType": 5126,
      "count": 65532,
      "max": [
        0.9998779892921448,
        0.9998779892921448
      ],
      "min": [
        0.00012199999764561653,
        0.5001220107078552
      ],
      "type": "VEC2"
    },
    {
      "bufferView": 0,
      "byteOffset": 4039044,
      "componentType": 5125,
      "count": 192411,
      "type": "SCALAR"
    },
    {
      "bufferView": 2,
      "byteOffset": 9436608,
      "componentType": 5126,
      "count": 65532,
      "max": [
        350.2692565917969,
        3.9120941162109375,
        348.3236083984375
      ],
      "min": [
        -430.3128967285156,
        -74.7828598022461,
        -182.03021240234375
      ],
      "type": "VEC3"
    },
    {
      "bufferView": 2,
      "byteOffset": 10222992,
      "componentType": 5126,
      "count": 65532,
      "max": [
        0.9998788833618164,
        0.9995831251144409,
        0.9998694062232971
      ],
      "min": [
        -0.9999942779541016,
        -0.9999996423721313,
        -0.9999600648880005
      ],
      "type": "VEC3"
    },
    {
      "bufferView": 1,
      "byteOffset": 3145536,
      "componentType": 5126,
      "count": 65532,
      "max": [
        0.9998779892921448,
        0.9998779892921448
      ],
      "min": [
        0.5001220107078552,
        0.5001220107078552
      ],
      "type": "VEC2"
    },
    {
      "bufferView": 0,
      "byteOffset": 4808688,
      "componentType": 5125,
      "count": 198681,
      "type": "SCALAR"
    },
    {
      "bufferView": 2,
      "byteOffset": 11009376,
      "componentType": 5126,
      "count": 7936,
      "max": [
        371.25799560546875,
        1.298431396484375,
        97.54627990722656
      ],
      "min": [
        -428.0272521972656,
        -75.25049591064453,
        -297.7264404296875
      ],
      "type": "VEC3"
    },
    {
      "bufferView": 2,
      "byteOffset": 11104608,
      "componentType": 5126,
      "count": 7936,
      "max": [
        0.999755322933197,
        0.9711366295814514,
        0.9996920824050903
      ],
      "min": [
        -0.9957601428031921,
        -0.9999997615814209,
        -0.9999035000801086
      ],
      "type": "VEC3"
    },
    {
      "bufferView": 1,
      "byteOffset": 3669792,
      "componentType": 5126,
      "count": 7936,
      "max": [
        0.9998779892921448,
        0.9998779892921448
      ],
      "min": [
        0.5001220107078552,
        0.5001220107078552
      ],
      "type": "VEC2"
    },
    {
      "bufferView": 0,
      "byteOffset": 5603412,
      "componentType": 5125,
      "count": 19161,
      "type": "SCALAR"
    }
  ],
  "asset": {
    "extras": {
      "author": "peter93 (https://sketchfab.com/peter93)",
      "license": "SKETCHFAB Editorial (https://sketchfab.com/licenses)",
      "source": "https://sketchfab.com/3d-models/container-terminal-2b06c73833a64569887cdcfa405a9b6b",
      "title": "Container Terminal"
    },
    "generator": "Sketchfab-11.49.0",
    "version": "2.0"
  },
  "bufferViews": [
    {
      "buffer": 0,
      "byteLength": 5680056,
      "name": "floatBufferViews",
      "target": 34963
    },
    {
      "buffer": 0,
      "byteLength": 3733280,
      "byteOffset": 5680056,
      "byteStride": 8,
      "name": "floatBufferViews",
      "target": 34962
    },
    {
      "buffer": 0,
      "byteLength": 11199840,
      "byteOffset": 9413336,
      "byteStride": 12,
      "name": "floatBufferViews",
      "target": 34962
    }
  ],
  "buffers": [
    {
      "byteLength": 20613176,
      "uri": "scene.bin"
    }
  ],
  "extensionsUsed": [
    "KHR_materials_unlit"
  ],
  "images": [
    {
      "uri": "textures/Container_Terminal_29-06_Material_u1_v1_baseColor.jpeg"
    }
  ],
  "materials": [
    {
      "doubleSided": true,
      "extensions": {
        "KHR_materials_unlit": {}
      },
      "name": "Container_Terminal_29-06_Material_u1_v1",
      "pbrMetallicRoughness": {
        "baseColorTexture": {
          "index": 0
        },
        "metallicFactor": 0.0
      }
    }
  ],
  "meshes": [
    {
      "name": "Object_0",
      "primitives": [
        {
          "attributes": {
            "NORMAL": 1,
            "POSITION": 0,
            "TEXCOORD_0": 2
          },
          "indices": 3,
          "material": 0,
          "mode": 4
        }
      ]
    },
    {
      "name": "Object_1",
      "primitives": [
        {
          "attributes": {
            "NORMAL": 5,
            "POSITION": 4,
            "TEXCOORD_0": 6
          },
          "indices": 7,
          "material": 0,
          "mode": 4
        }
      ]
    },
    {
      "name": "Object_2",
      "primitives": [
        {
          "attributes": {
            "NORMAL": 9,
            "POSITION": 8,
            "TEXCOORD_0": 10
          },
          "indices": 11,
          "material": 0,
          "mode": 4
        }
      ]
    },
    {
      "name": "Object_3",
      "primitives": [
        {
          "attributes": {
            "NORMAL": 13,
            "POSITION": 12,
            "TEXCOORD_0": 14
          },
          "indices": 15,
          "material": 0,
          "mode": 4
        }
      ]
    },
    {
      "name": "Object_4",
      "primitives": [
        {
          "attributes": {
            "NORMAL": 17,
            "POSITION": 16,
            "TEXCOORD_0": 18
          },
          "indices": 19,
          "material": 0,
          "mode": 4
        }
      ]
    },
    {
      "name": "Object_5",
      "primitives": [
        {
          "attributes": {
            "NORMAL": 21,
            "POSITION": 20,
            "TEXCOORD_0": 22
          },
          "indices": 23,
          "material": 0,
          "mode": 4
        }
      ]
    },
    {
      "name": "Object_6",
      "primitives": [
        {
          "attributes": {
            "NORMAL": 25,
            "POSITION": 24,
            "TEXCOORD_0": 26
          },
          "indices": 27,
          "material": 0,
          "mode": 4
        }
      ]
    },
    {
      "name": "Object_7",
      "primitives": [
        {
          "attributes": {
            "NORMAL": 29,
            "POSITION": 28,
            "TEXCOORD_0": 30
          },
          "indices": 31,
          "material": 0,
          "mode": 4
        }
      ]
    }
  ],
  "nodes": [
    {
      "children": [
        1
      ],
      "matrix": [
        1.0,
        0.0,
        0.0,
        0.0,
        0.0,
        -1.0,
        -4.440892098500626e-16,
        0.0,
        0.0,
        4.440892098500626e-16,
        -1.0,
        0.0,
        0.0,
        -28.16768264770509,
        48.14351272583007,
        1.0
      ],
      "name": "Sketchfab_model"
    },
    {
      "children": [
        2,
        3,
        4,
        5,
        6,
        7,
        8,
        9
      ],
      "name": "Container_Terminal_29-06.obj.cleaner.materialmerger.gles"
    },
    {
      "mesh": 0,
      "name": "Object_2"
    },
    {
      "mesh": 1,
      "name": "Object_3"
    },
    {
      "mesh": 2,
      "name": "Object_4"
    },
    {
      "mesh": 3,
      "name": "Object_5"
    },
    {
      "mesh": 4,
      "name": "Object_6"
    },
    {
      "mesh": 5,
      "name": "Object_7"
    },
    {
      "mesh": 6,
      "name": "Object_8"
    },
    {
      "mesh": 7,
      "name": "Object_9"
    }
  ],
  "samplers": [
    {
      "magFilter": 9729,
      "minFilter": 9987,
      "wrapS": 10497,
      "wrapT": 10497
    }
  ],
  "scene": 0,
  "scenes": [
    {
      "name": "Sketchfab_Scene",
      "nodes": [
        0
      ]
    }
  ],
  "textures": [
    {
      "sampler": 0,
      "source": 0
    }
  ]
}
